<svg id="Ebene_1" data-name="Ebene 1" xmlns="http://www.w3.org/2000/svg" viewBox="0 0 5109.28 1978.01"><defs><style>.cls-1{fill:none;}.cls-2{fill:#fff;}</style></defs><title>Zeichenfläche 1 Kopie</title><path class="cls-1" d="M-25.69-206.82H2332V2150.9H-25.69Z"/><path class="cls-2" d="M465.5,1088v393l687.66,375.26,687.67-375.26V1088l-687.67,375.27ZM1153.16,87.9,72.55,677.33l1080.61,589.43,884.15-482.35v678.82h196.47V677.33Z"/><path class="cls-2" d="M2219.08,718.69l7.52,95.18q30.14-52.05,75.67-80.46T2406.72,705q58.19,0,100.66,30.47t65.07,92.8q29.43-58.21,75.67-90.74T2756,705q93.14,0,147.23,78.07t54.11,239v437.61H2764.2V1022.06q0-93.79-19.86-129.43t-61-35.61q-30.12,0-53.41,17.47t-38.35,48.27q.66,17.13,1.7,29.44t1,24.66v482.81H2401.92V1022.06q0-92.43-19.87-128.73T2320.43,857q-28.09,0-50.34,14t-38,39.38v549.23H2039v-741Z"/><path class="cls-2" d="M3062.79,1082.32q0-167.1,79.78-272.21T3366.85,705q143.82,0,224.63,105.12t80.81,272.21v15.76q0,167.1-80.47,271.53t-223.6,104.44q-145.18,0-225.31-104.1t-80.12-271.87Zm192.43,15.76q0,103.41,25.68,164.36t87.32,60.94q58.91,0,84.92-60.94t26-164.36v-15.76q0-102-26-164t-86.29-62q-60.26,0-85.95,62.33t-25.68,163.66Z"/><path class="cls-2" d="M4106.47,1266.55q0-32.86-25.35-56.16t-97.92-56.85q-113-42.45-169.85-95.18t-56.84-135.6q0-90.39,72.26-154.07T4020.18,705q124.64,0,198.94,66.08T4290,937.83l-1.36,4.11H4102.36q0-46.58-20.54-75t-62.33-28.43q-33.55,0-56.5,21.92t-22.94,53.41q0,32.88,22.59,53.08t98.63,55.82q117.09,40.41,174.29,94.85T4292.74,1259q0,94.5-75.68,154.77t-199.62,60.27q-129.45,0-204.77-74t-71.9-167.77l2.05-4.11h175.31q1.38,60.27,28.77,86.63t75.33,26.36q41.08,0,62.66-20.19T4106.47,1266.55Z"/><path class="cls-2" d="M4980.3,1107.67q0,165.74-65.4,266t-183.18,100.33q-47.28,0-83.57-18.83t-63-55.14v344.48H4392.72V718.69h176.69l8.22,76q27.39-43.11,65.05-66.42T4730.35,705q119.16,0,184.55,106.83t65.4,281.46Zm-193.12-14.39q0-106.12-26-171.19T4680.35,857q-32.87,0-56.85,16.78t-38.33,46.9V1270q14.35,26,38.33,39.72t57.54,13.69q56.16,0,81.15-57.17t25-158.54Z"/><path class="cls-2" d="M2118.38,1653.62h.76l34.26-135.53h46.3V1700.8h-35.14V1585.73l-.75-.12-33,115.19h-23.72l-32.75-114.32-.75.13V1700.8h-35.27V1518.09h46.06Z"/><path class="cls-2" d="M2220.53,1631.66q0-30.62,14.62-49.88t41.1-19.26q26.36,0,41.16,19.26t14.81,49.88v2.89q0,30.62-14.75,49.75t-41,19.14q-26.61,0-41.29-19.08t-14.68-49.81Zm35.26,2.89q0,18.95,4.71,30.11t16,11.17q10.78,0,15.56-11.17t4.77-30.11v-2.89q0-18.69-4.77-30.05t-15.81-11.36q-11,0-15.75,11.42t-4.71,30Z"/><path class="cls-2" d="M2459.09,1636.3q0,30.75-11.61,48.94t-33.95,18.2a31.38,31.38,0,0,1-17.06-4.58,38.33,38.33,0,0,1-12.43-13.24l-2.38,15.18h-30.24V1505h35.26v72a35.31,35.31,0,0,1,11.54-10.79,30.31,30.31,0,0,1,15.19-3.76q22.46,0,34.07,19.32t11.61,51.83Zm-35.39-2.63q0-20.46-4.14-31.88t-15.19-11.42a17.94,17.94,0,0,0-10.6,3.14,21.56,21.56,0,0,0-7.09,8.79v63.12a18.23,18.23,0,0,0,7,7.71,21,21,0,0,0,10.79,2.58q11.16,0,15.18-10t4-29.37Z"/><path class="cls-2" d="M2514.93,1532h-35.39v-27h35.39Zm0,168.78h-35.39V1565h35.39Z"/><path class="cls-2" d="M2577.29,1700.8h-35.38V1505h35.38Z"/><path class="cls-2" d="M2654.6,1703.44q-26.86,0-41.67-18.57t-14.8-47.81v-5.15q0-30.75,14.24-50.07t40.09-19.32q24,0,36.77,16.43t12.8,44.68V1643h-68.52q.88,15.06,6.84,24t18.39,8.91q10.53,0,17.63-2.45a71.61,71.61,0,0,0,15.24-7.71l9.16,22.08q-7.28,6.66-19.63,11.17A76.77,76.77,0,0,1,2654.6,1703.44Zm-2.14-113.19a14.17,14.17,0,0,0-13.24,7.84q-4.32,7.85-5.45,21.52h33.63v-3.13q0-12.43-3.46-19.33T2652.46,1590.25Z"/><path class="cls-2" d="M2859.89,1653.37q0-10.92-5.58-17.26t-20-12.36q-28.11-9.9-42.28-22.46t-14.18-35.13q0-22.47,16.18-36.58t41.29-14.12q26.6,0,42.79,15.06t15.69,40.4l-.26.76h-34.38q0-14.19-6.34-21.52t-18.13-7.35q-10.17,0-15.81,6.72t-5.65,16.75a20.14,20.14,0,0,0,6.4,15.31q6.41,6,22,13.18,26.47,8.77,40.1,22.21t13.61,36.14q0,23.46-15.93,36.89t-42.29,13.43q-26,0-44.43-14.49t-17.82-44.11l.25-.76h34.51q0,17.2,7,24.72t20.52,7.53q11.42,0,17.12-6.27T2859.89,1653.37Z"/><path class="cls-2" d="M2986.64,1681.48q-5.4,10.55-13.49,16.25a31.71,31.71,0,0,1-18.76,5.71q-18.33,0-28.8-14.68t-10.48-45.43V1565h35.39v78.55q0,18.2,3.57,25.16t11.23,7a23.85,23.85,0,0,0,10.8-2.33,21.53,21.53,0,0,0,7.9-6.83V1565h35.52V1700.8h-29Z"/><path class="cls-2" d="M3150.15,1636.3q0,30.75-11.61,48.94t-33.94,18.2a31.39,31.39,0,0,1-17.07-4.58,38.4,38.4,0,0,1-12.42-13.24l-2.39,15.18h-30.24V1505h35.26v72a35.34,35.34,0,0,1,11.55-10.79,30.25,30.25,0,0,1,15.18-3.76q22.46,0,34.07,19.32t11.61,51.83Zm-35.39-2.63q0-20.46-4.14-31.88t-15.18-11.42a18,18,0,0,0-10.61,3.14,21.64,21.64,0,0,0-7.09,8.79v63.12a18.29,18.29,0,0,0,7,7.71,21,21,0,0,0,10.79,2.58q11.18,0,15.19-10t4-29.37Z"/><path class="cls-2" d="M3229.33,1665.42a13.48,13.48,0,0,0-4.64-10.29q-4.65-4.28-18-10.42-20.7-7.79-31.12-17.44t-10.41-24.85q0-16.56,13.24-28.23t35.07-11.67q22.84,0,36.45,12.1t13,30.56l-.25.75h-34.13q0-8.52-3.77-13.74t-11.42-5.2a14.43,14.43,0,0,0-10.35,4,13,13,0,0,0-4.2,9.79,12.39,12.39,0,0,0,4.14,9.72q4.14,3.71,18.07,10.23,21.45,7.41,31.94,17.38t10.47,25.92q0,17.31-13.86,28.36t-36.58,11q-23.71,0-37.52-13.55t-13.18-30.75l.38-.75h32.12q.25,11,5.27,15.87t13.81,4.83q7.53,0,11.48-3.7A13,13,0,0,0,3229.33,1665.42Z"/><path class="cls-2" d="M3323.2,1531.27V1565h18.44v25.22H3323.2v69.14q0,8.65,2.51,12.3a7.92,7.92,0,0,0,6.9,3.64,22.55,22.55,0,0,0,4.14-.31,37.69,37.69,0,0,0,4-1.07l2.76,26.1a62,62,0,0,1-9.6,2.57,58.9,58.9,0,0,1-10.36.82q-17.31,0-26.54-10.54t-9.22-33.26v-69.39h-16.44V1565h16.44v-33.76Z"/><path class="cls-2" d="M3398.49,1532H3363.1v-27h35.39Zm0,168.78H3363.1V1565h35.39Z"/><path class="cls-2" d="M3465.25,1531.27V1565h18.45v25.22h-18.45v69.14q0,8.65,2.51,12.3a7.92,7.92,0,0,0,6.9,3.64,22.55,22.55,0,0,0,4.14-.31,37.69,37.69,0,0,0,4-1.07l2.76,26.1a62,62,0,0,1-9.6,2.57,58.86,58.86,0,0,1-10.35.82q-17.33,0-26.54-10.54t-9.23-33.26v-69.39h-16.44V1565h16.44v-33.76Z"/><path class="cls-2" d="M3574.17,1681.48q-5.39,10.55-13.49,16.25a31.68,31.68,0,0,1-18.76,5.71q-18.32,0-28.8-14.68t-10.47-45.43V1565H3538v78.55q0,18.2,3.58,25.16t11.23,7a23.78,23.78,0,0,0,10.79-2.33,21.56,21.56,0,0,0,7.91-6.83V1565h35.51V1700.8h-29Z"/><path class="cls-2" d="M3671.43,1531.27V1565h18.44v25.22h-18.44v69.14q0,8.65,2.51,12.3a7.92,7.92,0,0,0,6.9,3.64,22.55,22.55,0,0,0,4.14-.31,37.69,37.69,0,0,0,4-1.07l2.76,26.1a62,62,0,0,1-9.6,2.57,58.9,58.9,0,0,1-10.36.82q-17.31,0-26.54-10.54t-9.22-33.26v-69.39H3619.6V1565H3636v-33.76Z"/><path class="cls-2" d="M3761.65,1703.44q-26.85,0-41.66-18.57t-14.81-47.81v-5.15q0-30.75,14.25-50.07t40.09-19.32q24,0,36.77,16.43t12.8,44.68V1643h-68.52q.88,15.06,6.84,24t18.38,8.91q10.55,0,17.64-2.45a71.84,71.84,0,0,0,15.24-7.71l9.16,22.08q-7.27,6.66-19.64,11.17A76.73,76.73,0,0,1,3761.65,1703.44Zm-2.13-113.19a14.17,14.17,0,0,0-13.24,7.84q-4.34,7.85-5.46,21.52h33.63v-3.13q0-12.43-3.45-19.33T3759.52,1590.25Z"/><path class="cls-2" d="M3921.78,1634.67v66.13h-35.39V1518.09h61.11q27.48,0,43.55,16.13t16.06,42.22q0,26.24-16.06,42.23t-43.55,16Zm0-27.73h25.72q11.92,0,18.13-8.53t6.22-21.71q0-13.42-6.22-22.15t-18.13-8.72h-25.72Z"/><path class="cls-2" d="M4064.46,1700.8h-35.39V1505h35.39Z"/><path class="cls-2" d="M4157.57,1700.8a59.71,59.71,0,0,1-3.33-9.78,83.21,83.21,0,0,1-1.94-10.8,48,48,0,0,1-11.86,16.69,26.14,26.14,0,0,1-18,6.53q-18.57,0-28.55-10.86t-10-29.8q0-19.83,13.11-30.81t39.22-11h15.43V1609.7q0-10.17-3.76-15.62t-11.17-5.46q-6.52,0-9.92,4.39t-3.38,12.55l-34.14-.13-.25-.75q-.75-17.57,13.18-29.87t36.77-12.29q21.45,0,34.76,12.29t13.3,35.14v55.72a113.17,113.17,0,0,0,1.38,18.07,105.13,105.13,0,0,0,4.27,17.06Zm-26-23.59a19.76,19.76,0,0,0,12.55-4.33,21.73,21.73,0,0,0,7.53-10.48v-21.33h-15.43q-8.92,0-13,5.77t-4.08,14.56q0,7,3.39,11.42A10.83,10.83,0,0,0,4131.59,1677.21Z"/><path class="cls-2" d="M4242.27,1565l1.51,18.94a46.2,46.2,0,0,1,14.12-15.81,32.51,32.51,0,0,1,18.63-5.64q17.32,0,27.17,13.49t9.85,42.35v82.44h-35.39v-82.44q0-15.31-3.7-21.65a12.17,12.17,0,0,0-11.23-6.34,20.64,20.64,0,0,0-10.6,2.76,24,24,0,0,0-8,7.78v99.89h-35.39V1565Z"/></svg>